<svg width="118" height="24" viewBox="0 0 118 24" fill="none" xmlns="http://www.w3.org/2000/svg">
<path d="M67.696 21.7452C67.7911 21.9016 67.8053 22.2164 67.7385 22.3347C67.6718 22.455 67.4169 22.5973 67.2388 22.5973H62.1388C61.5845 22.5973 61.1111 22.3166 60.834 21.8294L55.7117 12.8266C55.6146 12.6562 55.5944 12.3815 55.6612 12.2812C55.9504 11.8461 57.2047 12.0306 58.6249 11.2386C59.7719 10.599 60.3201 9.45811 60.1866 8.17887C59.9803 6.20187 58.2587 5.54821 56.4784 5.53819L54.3098 5.52415C54.0852 5.52415 53.9214 5.68456 53.9214 5.93319V21.8755C53.9193 22.2825 53.5815 22.5953 53.1971 22.5953H48.5826C48.1902 22.5953 47.8584 22.2926 47.8584 21.8735V1.20122C47.8584 0.782161 48.1841 0.473379 48.5887 0.473379L56.9458 0.477389C58.3214 0.479394 59.6161 0.641806 60.9271 0.952592C63.2798 1.51201 65.2927 2.82533 66.0473 5.20134C66.46 6.50664 66.5551 7.86808 66.3406 9.22151C66.0089 11.3028 64.6818 12.7224 62.7902 13.6587L67.696 21.7452ZM5.33266 0.473379H0.726261C0.327728 0.473379 0 0.782161 0 1.20122V21.8735C0 22.2946 0.331774 22.5973 0.726261 22.5973L5.36907 22.5933C5.79998 22.5933 6.01846 22.2404 6.06094 21.8735V1.20122C6.02251 0.790181 5.75547 0.473379 5.33266 0.473379ZM42.8251 0.473379H38.2167C37.8141 0.471374 37.4925 0.78617 37.4925 1.17916L37.4763 5.44997C37.4702 7.50516 36.6185 9.59445 34.4114 10.0757C32.4511 10.5048 30.3573 9.92529 29.5319 7.94829C29.2265 7.21844 29.0484 6.42443 29.0444 5.60837L29.0262 1.18718C29.0242 0.804216 28.7065 0.471375 28.308 0.471375H23.6976C23.297 0.471375 22.9753 0.796195 22.9753 1.18718L22.9834 5.76476C22.9855 7.31468 23.2505 8.79042 23.823 10.212C24.9518 13.0151 27.2601 14.6512 30.2117 15.2708V21.8113C30.2137 22.2525 30.4989 22.5993 30.9582 22.5993H35.5686C35.9631 22.5993 36.2706 22.2565 36.2706 21.8735L36.2766 15.2387C39.2687 14.5309 41.5183 12.9108 42.7098 10.0596C43.2621 8.66009 43.5332 7.21844 43.5352 5.65047L43.5413 1.18518C43.5413 0.806221 43.2196 0.473379 42.8251 0.473379ZM13.2042 11.2486L20.4365 1.29746C20.5336 1.16312 20.5498 0.836297 20.485 0.724013C20.4203 0.609724 20.1937 0.471375 20.0177 0.471375H14.5981C14.1186 0.471375 13.718 0.699952 13.449 1.09295L6.77709 10.8135C6.49387 11.2266 6.5141 11.6978 6.78923 12.0988L13.5461 21.9657C13.8313 22.3828 14.246 22.5993 14.7579 22.5993L20.3677 22.5953C20.5558 22.5953 20.7521 22.455 20.8067 22.3567C20.8613 22.2565 20.8552 21.9617 20.7723 21.8434L13.2042 11.2486ZM92.7632 14.6392C90.9384 21.9096 82.8181 24.5964 76.3141 22.2364C72.8729 20.9873 70.3442 18.2183 69.4561 14.7134C68.0137 9.02701 70.5323 3.02584 76.2595 0.872389C79.4012 -0.308598 82.9496 -0.288549 86.0792 0.920509C91.7254 3.10203 94.1773 9.00696 92.7632 14.6392ZM83.4452 5.97128C80.3136 4.7502 76.571 6.07755 75.4725 9.40597C74.4974 12.3635 75.5817 15.8222 78.6426 17.0653C82.0372 18.4448 86.0711 16.7465 86.9187 13.0151C87.5721 10.1338 86.3199 7.09012 83.4452 5.96928V5.97128ZM83.9226 11.4852C83.955 13.0712 82.8241 14.3565 81.1632 14.4247C79.4093 14.4948 78.1186 13.1675 78.151 11.4872C78.1854 9.78694 79.5691 8.51572 81.2826 8.65407C82.81 8.77838 83.8923 9.97341 83.9247 11.4852H83.9226ZM111.106 8.13676C110.25 6.08958 108.015 5.5422 106.024 6.01139C103.92 6.50864 103.036 8.5458 103.034 10.5208L103.026 22.3788C103.026 22.8359 102.692 23.1547 102.249 23.1547H97.5881C97.226 23.1527 96.878 22.84 96.88 22.455L96.8841 10.202C96.8841 8.86861 97.1046 7.64552 97.5213 6.40839C98.3973 3.80581 100.376 1.83482 103.02 0.948582C105.82 0.00820327 108.927 -0.00182289 111.731 0.926525C115.842 2.28997 117.749 6.08557 117.751 10.202L117.76 22.3808C117.76 22.8339 117.428 23.1567 116.987 23.1547H112.33C111.899 23.1507 111.614 22.7958 111.612 22.3788L111.606 10.601C111.606 9.72077 111.432 8.91072 111.108 8.13676H111.106Z" fill="url(#paint0_linear_117_111)"/>
<defs>
<linearGradient id="paint0_linear_117_111" x1="0" y1="0" x2="118" y2="0" gradientUnits="userSpaceOnUse">
<stop stop-color="#B44FD8"/>
<stop offset="0.5" stop-color="#FF6B6B"/>
<stop offset="1" stop-color="#FFB930"/>
</linearGradient>
</defs>
</svg>
